<svg width="600" height="315" viewBox="0 0 600 315" fill="none" xmlns="http://www.w3.org/2000/svg">
<g clip-path="url(#clip0_160_5)">
<path d="M0 4.72811C0 3.99703 0.219179 3.41217 0.657536 2.97352C1.24201 2.38866 1.89955 2.09623 2.63014 2.09623H51.507C62.0276 2.09623 71.8906 4.07014 81.0961 8.01796C90.3016 11.9658 98.3382 17.3758 105.206 24.2479C112.073 30.9738 117.553 38.9426 121.644 48.1542C125.882 57.2195 128.073 66.9429 128.22 77.3242C128.512 88.1441 126.539 98.3061 122.302 107.81C118.21 117.314 112.585 125.648 105.425 132.813C98.2651 139.831 89.8633 145.388 80.2194 149.482C70.7217 153.576 60.5664 155.623 49.7536 155.623H2.63014C1.89955 155.623 1.24201 155.403 0.657536 154.965C0.219179 154.38 0 153.722 0 152.991V4.72811ZM28.0549 127.769H51.507C58.2285 127.769 64.5116 126.526 70.3564 124.04C76.3473 121.408 81.5345 117.899 85.9181 113.513C90.4478 108.98 93.9546 103.789 96.4386 97.9406C99.0688 91.9457 100.384 85.5853 100.384 78.8594C100.384 72.1335 99.0688 65.8462 96.4386 59.9976C93.9546 54.0028 90.4478 48.8121 85.9181 44.4256C81.5345 39.893 76.3473 36.3838 70.3564 33.8981C64.5116 31.2663 58.2285 29.9503 51.507 29.9503H28.0549V127.769Z" fill="white"/>
<path d="M153.682 4.72811C153.682 3.99703 153.901 3.41217 154.339 2.97352C154.924 2.38866 155.581 2.09623 156.312 2.09623H250.997C252.751 2.09623 253.627 2.97352 253.627 4.72811V27.3184C253.627 29.073 252.751 29.9503 250.997 29.9503H181.737V65.0421H236.532C238.285 65.0421 239.162 65.9193 239.162 67.6739V90.0449C239.162 91.9457 238.285 92.8961 236.532 92.8961H181.737V127.769H257.792C258.669 127.769 259.253 128.134 259.545 128.865C259.984 129.596 259.911 130.254 259.326 130.839L243.107 152.113C241.207 154.453 238.796 155.623 235.874 155.623H156.312C155.581 155.623 154.924 155.403 154.339 154.965C153.901 154.38 153.682 153.722 153.682 152.991V4.72811Z" fill="white"/>
<path d="M283.239 1.65758H305.814C306.545 1.65758 307.202 1.95002 307.787 2.53488C308.371 2.97352 308.664 3.55838 308.664 4.28946V107.81L387.349 5.16675C389.248 2.82731 391.659 1.65758 394.582 1.65758H422.417C423.294 1.65758 423.879 2.02312 424.171 2.7542C424.609 3.48528 424.609 4.14325 424.171 4.72811L311.294 151.675C309.394 154.014 306.983 155.184 304.061 155.184H283.239C282.508 155.184 281.851 154.965 281.266 154.526C280.828 153.941 280.609 153.283 280.609 152.552V4.28946C280.609 3.55838 280.828 2.97352 281.266 2.53488C281.851 1.95002 282.508 1.65758 283.239 1.65758Z" fill="white"/>
<path d="M0 308.64V160.377C0 159.646 0.219179 159.061 0.657536 158.622C1.24201 158.038 1.89955 157.745 2.63014 157.745H25.2056C27.1051 157.745 28.0549 158.622 28.0549 160.377V220.691H90.9592V160.377C90.9592 159.646 91.1783 159.061 91.6167 158.622C92.2012 158.038 92.8587 157.745 93.5893 157.745H116.384C117.114 157.745 117.699 158.038 118.137 158.622C118.722 159.061 119.014 159.646 119.014 160.377V308.64C119.014 309.371 118.722 310.029 118.137 310.614C117.699 311.052 117.114 311.272 116.384 311.272H93.5893C92.8587 311.272 92.2012 311.052 91.6167 310.614C91.1783 310.029 90.9592 309.371 90.9592 308.64V248.545H28.0549V308.64C28.0549 310.394 27.1051 311.272 25.2056 311.272H2.63014C1.89955 311.272 1.24201 311.052 0.657536 310.614C0.219179 310.029 0 309.371 0 308.64Z" fill="white"/>
<path d="M144.334 233.85C144.334 222.592 146.38 212.137 150.471 202.487C154.709 192.691 160.334 184.283 167.348 177.265C174.508 170.1 182.91 164.544 192.554 160.596C202.198 156.502 212.572 154.528 223.677 154.675C234.782 154.821 245.157 157.014 254.8 161.254C264.444 165.495 272.773 171.27 279.787 178.581C286.947 185.892 292.572 194.445 296.664 204.242C300.755 213.892 302.727 224.2 302.581 235.166C302.435 246.279 300.243 256.66 296.006 266.31C291.769 275.96 285.997 284.368 278.691 291.532C271.531 298.697 263.129 304.326 253.485 308.42C243.841 312.368 233.467 314.342 222.362 314.342C211.403 314.342 201.102 312.295 191.458 308.201C181.96 303.961 173.704 298.258 166.691 291.094C159.677 283.783 154.197 275.229 150.252 265.433C146.307 255.636 144.334 245.109 144.334 233.85ZM172.389 234.947C172.389 242.112 173.777 248.911 176.554 255.344C179.33 261.778 183.056 267.407 187.732 272.232C192.408 277.057 197.814 280.859 203.951 283.637C210.088 286.415 216.663 287.804 223.677 287.804C230.545 287.658 237.047 286.122 243.184 283.198C249.321 280.274 254.654 276.399 259.184 271.574C263.86 266.603 267.513 260.9 270.143 254.467C272.773 247.887 274.015 241.015 273.869 233.85C273.869 226.686 272.481 219.887 269.705 213.453C266.928 207.02 263.202 201.464 258.526 196.785C253.851 191.96 248.371 188.158 242.088 185.38C235.951 182.602 229.449 181.213 222.581 181.213C215.714 181.359 209.211 182.894 203.074 185.819C196.937 188.597 191.604 192.471 187.074 197.443C182.544 202.268 178.965 207.897 176.334 214.331C173.704 220.764 172.389 227.636 172.389 234.947Z" fill="white"/>
<path d="M323.533 202.706C323.533 195.834 324.922 189.474 327.698 183.625C330.62 177.777 334.492 172.732 339.314 168.492C344.282 164.252 349.981 160.889 356.41 158.403C362.986 155.917 369.926 154.675 377.232 154.675C388.63 154.675 398.493 156.722 406.821 160.816C415.296 164.763 421.652 169.369 425.89 174.633C426.913 175.949 426.84 177.119 425.671 178.142L410.547 193.933C409.963 194.518 409.232 194.811 408.356 194.811C407.625 194.811 406.968 194.445 406.383 193.714C405.068 192.252 403.388 190.79 401.342 189.328C399.442 187.866 397.178 186.55 394.547 185.38C392.063 184.064 389.36 183.04 386.438 182.309C383.515 181.578 380.52 181.213 377.451 181.213C373.798 181.213 370.438 181.798 367.369 182.967C364.447 183.991 361.963 185.38 359.917 187.134C357.871 188.889 356.264 190.936 355.095 193.276C353.926 195.615 353.342 198.101 353.342 200.733C353.342 204.973 354.73 208.628 357.506 211.699C360.282 214.769 364.447 216.889 369.999 218.059L391.479 222.226C398.493 223.542 404.63 225.662 409.89 228.587C415.296 231.365 419.753 234.728 423.26 238.675C426.913 242.623 429.689 247.083 431.589 252.054C433.488 256.879 434.438 261.997 434.438 267.407C434.438 273.255 433.196 279.031 430.712 284.733C428.374 290.436 424.794 295.553 419.972 300.086C415.296 304.619 409.525 308.274 402.657 311.052C395.789 313.684 387.899 315 378.986 315C372.703 315 366.785 314.342 361.232 313.026C355.826 311.71 350.858 310.029 346.328 307.982C341.944 305.788 338.072 303.449 334.712 300.963C331.351 298.331 328.575 295.773 326.383 293.287C325.36 292.263 325.36 291.094 326.383 289.778L340.191 272.013C340.629 271.282 341.214 270.916 341.944 270.916C342.821 270.77 343.552 270.989 344.136 271.574C346.182 273.475 348.447 275.449 350.931 277.496C353.415 279.397 356.118 281.151 359.04 282.759C361.963 284.368 365.104 285.684 368.465 286.707C371.826 287.731 375.406 288.243 379.205 288.243C387.241 288.243 393.378 286.488 397.616 282.979C401.853 279.47 403.972 274.937 403.972 269.381C403.972 264.994 402.365 261.193 399.15 257.976C396.082 254.613 391.479 252.347 385.342 251.177L363.862 246.79C351.588 244.305 341.798 239.26 334.492 231.657C327.186 224.054 323.533 214.404 323.533 202.706Z" fill="white"/>
<path d="M449.094 159.938C449.094 159.207 449.313 158.622 449.751 158.184C450.336 157.599 450.993 157.306 451.724 157.306H546.847C549.77 157.306 552.181 158.476 554.08 160.816L570.3 182.09C570.884 182.821 570.957 183.552 570.519 184.283C570.227 184.868 569.642 185.161 568.765 185.161H519.888V308.201C519.888 309.956 519.012 310.833 517.258 310.833H494.683C492.929 310.833 492.053 309.956 492.053 308.201V185.161H451.724C450.993 185.161 450.336 184.941 449.751 184.503C449.313 183.918 449.094 183.26 449.094 182.529V159.938Z" fill="white"/>
<path d="M573.26 281.663H597.151C599.05 281.663 600 282.613 600 284.514V308.64C600 310.54 599.05 311.491 597.151 311.491H573.26C571.361 311.491 570.411 310.54 570.411 308.64V284.514C570.411 282.613 571.361 281.663 573.26 281.663Z" fill="#B4FF39"/>
<path d="M490.329 137.228L484.328 132.647C483.668 132.11 483.339 131.429 483.339 130.604V109.432C483.339 109.226 483.421 109.061 483.586 108.937C483.751 108.772 483.937 108.689 484.143 108.689H493.484C493.856 108.689 494.206 108.813 494.536 109.061L518.849 127.694V109.432C518.849 109.226 518.932 109.061 519.096 108.937C519.22 108.772 519.385 108.689 519.591 108.689H525.902C526.108 108.689 526.293 108.772 526.458 108.937C526.623 109.061 526.706 109.226 526.706 109.432V135.061C526.706 135.267 526.623 135.453 526.458 135.618C526.293 135.742 526.108 135.804 525.902 135.804H516.003L491.195 116.737V136.794C491.195 137.001 491.113 137.166 490.948 137.29C490.742 137.413 490.535 137.393 490.329 137.228Z" fill="#B4FF39"/>
<path d="M525.902 101.088H484.143C483.937 101.088 483.751 101.026 483.586 100.903C483.421 100.738 483.339 100.552 483.339 100.345V69.8878C483.339 69.3925 483.607 69.1449 484.143 69.1449H525.902C526.438 69.1449 526.706 69.3925 526.706 69.8878V100.345C526.706 100.552 526.623 100.738 526.458 100.903C526.293 101.026 526.108 101.088 525.902 101.088ZM491.195 93.1644H518.787V77.0689L491.195 77.0689V93.1644Z" fill="#B4FF39"/>
<path d="M490.329 62.2637L484.328 57.6827C483.668 57.1462 483.339 56.4652 483.339 55.6398V34.468C483.339 34.2616 483.421 34.0966 483.586 33.9727C483.751 33.8077 483.937 33.7251 484.143 33.7251H493.484C493.856 33.7251 494.206 33.8489 494.536 34.0966L518.849 52.7302V34.468C518.849 34.2616 518.932 34.0966 519.096 33.9727C519.22 33.8077 519.385 33.7251 519.591 33.7251H525.902C526.108 33.7251 526.293 33.8077 526.458 33.9727C526.623 34.0966 526.706 34.2616 526.706 34.468V60.097C526.706 60.3033 526.623 60.4891 526.458 60.6541C526.293 60.778 526.108 60.8399 525.902 60.8399H516.003L491.195 41.7729V61.8304C491.195 62.0367 491.113 62.2018 490.948 62.3256C490.742 62.4494 490.535 62.4288 490.329 62.2637Z" fill="#B4FF39"/>
<path d="M504.001 28.91L484.328 13.805C483.668 13.351 483.339 12.6907 483.339 11.824V3.90007C483.339 3.69372 483.442 3.54927 483.648 3.46673C483.854 3.34292 484.06 3.34292 484.267 3.46673L507.528 21.4194V0.742872C507.528 0.247624 507.796 7.91953e-07 508.332 7.68501e-07L525.902 0C526.438 -2.34519e-08 526.706 0.247624 526.706 0.742871V7.11917C526.706 7.61441 526.438 7.86204 525.902 7.86204H515.446V28.7243C515.446 28.9306 515.364 29.1164 515.199 29.2815C515.034 29.4053 514.848 29.4672 514.642 29.4672H505.548C504.929 29.4672 504.414 29.2814 504.001 28.91Z" fill="#B4FF39"/>
</g>
<defs>
<clipPath id="clip0_160_5">
<rect width="600" height="315" fill="white"/>
</clipPath>
</defs>
</svg>
