<svg width="843" height="718" viewBox="0 0 843 718" fill="none" xmlns="http://www.w3.org/2000/svg">
<g clip-path="url(#clip0_870_230)">
<path d="M575.953 246.656C575.953 248.165 576.031 249.673 576.19 251.174C575.335 279.483 565.975 306.878 549.329 329.792C542.942 338.592 535.57 346.633 527.356 353.758C501.593 376.056 468.659 388.329 434.585 388.329C400.512 388.329 367.578 376.056 341.814 353.758C350.054 346.637 357.451 338.596 363.861 329.792C379.24 342.896 397.955 351.476 417.921 354.575C437.888 357.674 458.322 355.171 476.95 347.345C495.579 339.518 511.669 326.676 523.431 310.247C535.193 293.818 542.165 274.447 543.57 254.29C543.738 251.79 543.826 249.26 543.836 246.7C543.846 244.141 543.757 241.611 543.57 239.11C542.355 221.351 536.786 204.164 527.356 189.066C517.545 173.302 503.878 160.299 487.647 151.282C471.415 142.266 453.153 137.535 434.585 137.535C416.018 137.535 397.756 142.266 381.524 151.282C365.293 160.299 351.626 173.302 341.814 189.066C332.415 204.158 326.868 221.328 325.66 239.066C325.483 241.561 325.394 244.101 325.394 246.641C325.394 249.181 325.483 251.721 325.66 254.216C324.275 268.139 319.123 281.422 310.756 292.637C302.39 303.851 291.125 312.574 278.174 317.867C265.222 323.161 251.073 324.825 237.246 322.681C223.42 320.537 210.439 314.666 199.699 305.698C188.959 296.731 180.865 285.006 176.288 271.784C171.711 258.562 170.823 244.343 173.72 230.655C176.618 216.966 183.19 204.326 192.732 194.093C202.273 183.859 214.423 176.419 227.875 172.572C230.35 171.874 232.954 171.758 235.481 172.235C238.008 172.712 240.39 173.768 242.44 175.321C244.49 176.873 246.153 178.879 247.297 181.182C248.442 183.485 249.037 186.022 249.036 188.594V188.771C249.032 192.413 247.842 195.955 245.647 198.861C243.452 201.768 240.37 203.881 236.868 204.881C227.032 207.754 218.524 214.004 212.841 222.531C207.158 231.058 204.664 241.317 205.798 251.501C206.932 261.686 211.621 271.144 219.041 278.212C226.461 285.28 236.136 289.505 246.363 290.143C257.632 290.815 268.733 287.158 277.397 279.921C286.061 272.684 291.635 262.412 292.981 251.204C293.301 248.195 293.301 245.161 292.981 242.152C293.842 213.854 303.202 186.47 319.842 163.564C326.229 154.764 333.601 146.723 341.814 139.598C367.578 117.299 400.512 105.027 434.585 105.027C468.659 105.027 501.593 117.299 527.356 139.598C543.99 154.013 557.047 172.095 565.499 192.418C572.056 208.234 575.679 225.112 576.19 242.226C576.035 243.697 575.956 245.176 575.953 246.656Z" fill="white"/>
<path d="M511.836 239.08C509.949 220.071 501.063 202.441 486.903 189.618C472.744 176.794 454.323 169.693 435.22 169.693C416.117 169.693 397.696 176.794 383.536 189.618C369.377 202.441 360.49 220.071 358.603 239.08C358.771 241.581 358.859 244.111 358.869 246.67C358.879 249.23 358.79 251.76 358.603 254.26C357.396 271.994 351.849 289.159 342.449 304.245C332.734 319.895 319.217 332.833 303.157 341.854C287.097 350.875 269.016 355.687 250.596 355.841C232.177 355.994 214.018 351.486 197.809 342.734C181.601 333.982 167.87 321.272 157.895 305.786C147.92 290.3 142.025 272.543 140.759 254.166C139.493 235.789 142.896 217.391 150.653 200.683C158.41 183.976 170.267 169.503 185.122 158.61C199.977 147.718 217.346 140.761 235.613 138.387C239.506 137.858 243.076 135.936 245.661 132.977C248.246 130.017 249.67 126.221 249.67 122.291C249.672 119.984 249.182 117.703 248.233 115.599C247.284 113.496 245.898 111.619 244.167 110.094C242.436 108.568 240.4 107.429 238.194 106.751C235.988 106.074 233.663 105.875 231.375 106.166C206.719 109.384 183.345 119.036 163.603 134.151C143.86 149.266 128.444 169.312 118.905 192.274C109.365 215.236 106.038 240.304 109.258 264.959C112.478 289.614 122.132 312.987 137.249 332.729C152.365 352.47 172.412 367.884 195.375 377.422C218.337 386.96 243.406 390.285 268.061 387.063C292.715 383.841 316.088 374.185 335.828 359.067C355.568 343.949 370.981 323.901 380.517 300.937C390.808 311.298 403.832 318.519 418.072 321.758C432.311 324.996 447.178 324.118 460.937 319.226C474.696 314.334 486.78 305.63 495.78 294.13C504.779 282.629 510.322 268.807 511.762 254.275C511.605 251.765 511.526 249.225 511.526 246.656C511.526 244.086 511.63 241.561 511.836 239.08ZM436.645 290.187C427.913 290.476 419.297 288.131 411.915 283.458C404.533 278.785 398.728 271.999 395.253 263.984C391.779 255.968 390.795 247.092 392.431 238.51C394.067 229.928 398.247 222.037 404.426 215.862C410.606 209.686 418.501 205.512 427.084 203.882C435.667 202.253 444.542 203.242 452.555 206.722C460.568 210.203 467.35 216.013 472.017 223.398C476.685 230.782 479.024 239.401 478.73 248.132C478.361 259.178 473.806 269.67 465.988 277.482C458.171 285.294 447.676 289.841 436.63 290.202L436.645 290.187Z" fill="white"/>
<path d="M697.114 245.548C697.361 262.452 692.041 278.969 681.972 292.549C671.903 306.13 657.646 316.02 641.399 320.696C638.911 321.399 636.294 321.516 633.753 321.037C631.213 320.557 628.818 319.495 626.757 317.934C624.696 316.373 623.025 314.354 621.876 312.038C620.728 309.722 620.132 307.171 620.135 304.585C620.154 300.936 621.358 297.391 623.566 294.486C625.774 291.58 628.866 289.47 632.377 288.475C642.419 285.546 651.071 279.101 656.751 270.318C662.431 261.535 664.76 251 663.312 240.641C661.864 230.282 656.735 220.79 648.864 213.901C640.993 207.012 630.905 203.187 620.446 203.124C617.753 203.105 615.064 203.332 612.413 203.803L611.408 203.995C602.246 205.817 593.899 210.501 587.569 217.371C581.24 224.242 577.255 232.945 576.19 242.226C575.67 225.137 572.048 208.285 565.499 192.492C576.18 181.737 589.797 174.375 604.645 171.326C619.492 168.278 634.909 169.68 648.963 175.357C663.017 181.033 675.083 190.732 683.649 203.236C692.214 215.741 696.898 230.496 697.114 245.652V245.548Z" fill="white"/>
<path d="M761.805 246.656C761.79 281.058 749.266 314.282 726.567 340.133C703.867 365.984 672.542 382.698 638.43 387.16C636.141 387.451 633.816 387.252 631.61 386.575C629.404 385.897 627.368 384.758 625.637 383.232C623.906 381.707 622.52 379.83 621.571 377.726C620.622 375.623 620.132 373.342 620.134 371.035C620.134 367.105 621.558 363.309 624.143 360.349C626.728 357.39 630.298 355.468 634.192 354.939C651.044 352.754 667.153 346.665 681.238 337.158C695.323 327.651 706.994 314.987 715.323 300.175C723.651 285.363 728.408 268.811 729.213 251.837C730.019 234.863 726.852 217.935 719.963 202.401C713.074 186.867 702.655 173.155 689.534 162.356C676.413 151.558 660.952 143.971 644.383 140.2C627.814 136.429 610.593 136.577 594.091 140.633C577.589 144.689 562.261 152.541 549.328 163.564C542.941 154.764 535.569 146.723 527.355 139.598C547.882 121.818 573.086 110.312 599.966 106.45C626.846 102.587 654.27 106.53 678.972 117.81C703.675 129.09 724.615 147.232 739.3 170.075C753.986 192.918 761.797 219.499 761.805 246.656Z" fill="white"/>
<path d="M304.498 572.48C304.523 577.817 303.458 583.103 301.368 588.015C299.373 592.778 296.503 597.125 292.907 600.832C289.284 604.518 284.988 607.476 280.252 609.544C275.361 611.712 270.067 612.82 264.717 612.793H206.596C204.855 612.818 203.126 612.488 201.517 611.823C199.907 611.157 198.45 610.171 197.234 608.924C196.001 607.711 195.021 606.264 194.352 604.668C193.683 603.072 193.339 601.359 193.339 599.628C193.339 597.898 193.683 596.185 194.352 594.589C195.021 592.993 196.001 591.546 197.234 590.333C198.45 589.086 199.907 588.1 201.517 587.434C203.126 586.769 204.855 586.439 206.596 586.464H264.289C266.118 586.486 267.931 586.129 269.616 585.418C271.3 584.707 272.82 583.655 274.079 582.329C275.398 581.051 276.442 579.516 277.148 577.82C277.854 576.124 278.207 574.302 278.184 572.465C278.22 570.596 277.875 568.739 277.169 567.007C276.463 565.276 275.412 563.706 274.079 562.395C272.82 561.069 271.3 560.017 269.616 559.306C267.931 558.595 266.118 558.238 264.289 558.26H236.868C231.445 558.297 226.072 557.222 221.082 555.1C211.394 551.024 203.687 543.317 199.612 533.629C197.527 528.625 196.453 523.258 196.453 517.836C196.453 512.415 197.527 507.048 199.612 502.044C201.64 497.247 204.573 492.885 208.25 489.197C211.927 485.528 216.247 482.565 220.994 480.455C225.928 478.261 231.275 477.148 236.676 477.191H263.447C265.189 477.167 266.917 477.498 268.526 478.163C270.136 478.828 271.593 479.814 272.809 481.06C274.045 482.273 275.026 483.719 275.696 485.315C276.366 486.911 276.711 488.625 276.711 490.356C276.711 492.087 276.366 493.8 275.696 495.396C275.026 496.992 274.045 498.439 272.809 499.651C271.597 500.908 270.142 501.906 268.533 502.584C266.924 503.262 265.194 503.605 263.447 503.594H236.543C232.867 503.687 229.375 505.226 226.826 507.876C224.255 510.566 222.82 514.145 222.82 517.866C222.82 521.587 224.255 525.166 226.826 527.856C228.09 529.206 229.624 530.275 231.329 530.992C233.034 531.71 234.871 532.06 236.72 532.02H264.097C269.53 531.985 274.909 533.097 279.883 535.283C284.667 537.367 289.024 540.321 292.73 543.995C296.405 547.668 299.338 552.015 301.368 556.798C303.471 561.757 304.536 567.094 304.498 572.48Z" fill="white"/>
<path d="M373.562 478.492C388.71 476.001 404.255 478.715 417.663 486.191C431.071 493.668 441.551 505.465 447.395 519.661C453.442 534.638 453.965 551.277 448.872 566.604C446.589 573.348 443.288 579.702 439.082 585.446C432.326 594.611 423.339 601.895 412.974 606.607C402.716 611.419 391.412 613.572 380.104 612.868C374.216 612.451 368.411 611.249 362.842 609.294C351.763 605.431 341.842 598.827 334.003 590.098C330.058 585.727 326.73 580.839 324.109 575.567C321.591 570.402 319.716 564.946 318.527 559.324C317.335 553.757 316.873 548.058 317.154 542.372C317.435 536.664 318.386 531.009 319.989 525.523C321.599 519.992 323.975 514.714 327.048 509.841C328.089 507.922 329.285 506.09 330.621 504.363H330.828C335.911 497.46 342.354 491.67 349.759 487.352C357.114 483.028 365.17 480.029 373.562 478.492ZM419.043 568.819C424.941 560.176 427.42 549.652 425.998 539.286C425.287 534.481 423.717 529.845 421.362 525.597C418.586 520.584 414.871 516.152 410.42 512.543C405.987 508.928 400.807 506.341 395.254 504.968C389.776 503.426 384.033 503.068 378.406 503.92C372.714 504.741 367.26 506.754 362.399 509.826C356.126 513.838 351.03 519.444 347.632 526.07C344.152 532.667 342.548 540.094 342.996 547.54C343.235 553.275 344.748 558.884 347.426 563.961C348.124 565.221 348.789 566.52 349.419 567.859C350.061 569.211 350.801 570.514 351.634 571.757C350.374 569.651 349.183 567.475 348.06 565.231C350.31 569.304 353.23 572.968 356.699 576.069C360.213 579.227 364.199 581.818 368.512 583.748C372.968 585.706 377.751 586.813 382.614 587.011C387.471 587.234 392.327 586.558 396.938 585.018C401.404 583.627 405.603 581.49 409.356 578.698C413.093 575.937 416.359 572.591 419.029 568.789L419.043 568.819Z" fill="white"/>
<path d="M566.414 572.48C566.415 577.823 565.325 583.109 563.209 588.015C561.214 592.778 558.344 597.125 554.748 600.832C551.126 604.518 546.83 607.476 542.093 609.544C537.203 611.712 531.908 612.82 526.559 612.793H468.511C466.77 612.818 465.041 612.488 463.432 611.823C461.822 611.157 460.365 610.171 459.149 608.924C457.916 607.711 456.936 606.264 456.267 604.668C455.598 603.072 455.254 601.359 455.254 599.628C455.254 597.898 455.598 596.185 456.267 594.589C456.936 592.993 457.916 591.546 459.149 590.333C460.365 589.086 461.822 588.1 463.432 587.434C465.041 586.769 466.77 586.439 468.511 586.464H526.204C528.033 586.486 529.846 586.129 531.531 585.418C533.215 584.707 534.735 583.655 535.995 582.329C537.313 581.051 538.358 579.516 539.063 577.82C539.769 576.124 540.122 574.302 540.1 572.465C540.135 570.596 539.79 568.739 539.084 567.007C538.378 565.276 537.327 563.706 535.995 562.395C534.735 561.069 533.215 560.017 531.531 559.306C529.846 558.595 528.033 558.238 526.204 558.26H498.827C493.404 558.297 488.032 557.222 483.042 555.1C473.354 551.024 465.647 543.317 461.571 533.629C459.486 528.625 458.413 523.258 458.413 517.836C458.413 512.415 459.486 507.048 461.571 502.044C463.599 497.247 466.532 492.885 470.209 489.197C473.887 485.528 478.206 482.565 482.953 480.455C487.888 478.261 493.235 477.148 498.635 477.191H525.377C527.119 477.167 528.847 477.498 530.456 478.163C532.066 478.828 533.523 479.814 534.739 481.06C535.975 482.273 536.956 483.719 537.626 485.315C538.296 486.911 538.641 488.625 538.641 490.356C538.641 492.087 538.296 493.8 537.626 495.396C536.956 496.992 535.975 498.439 534.739 499.651C533.516 500.9 532.051 501.888 530.434 502.553C528.817 503.218 527.081 503.547 525.333 503.52H498.458C494.782 503.613 491.29 505.152 488.741 507.803C486.17 510.493 484.735 514.071 484.735 517.792C484.735 521.514 486.17 525.092 488.741 527.782C490.005 529.132 491.539 530.201 493.244 530.919C494.949 531.636 496.786 531.986 498.635 531.946H526.012C531.445 531.912 536.824 533.024 541.798 535.209C546.583 537.293 550.939 540.247 554.645 543.922C558.297 547.61 561.205 551.966 563.209 556.754C565.343 561.721 566.434 567.074 566.414 572.48Z" fill="white"/>
<path d="M677.576 590.584C678.803 591.811 679.771 593.272 680.423 594.88C681.075 596.489 681.397 598.211 681.371 599.946C681.387 601.665 681.06 603.369 680.409 604.96C679.759 606.551 678.798 607.996 677.583 609.212C676.368 610.427 674.922 611.388 673.331 612.038C671.74 612.689 670.036 613.016 668.317 613H652.724C643.708 613.049 634.782 611.218 626.513 607.625C618.486 604.172 611.178 599.243 604.969 593.095C598.777 586.927 593.812 579.642 590.335 571.624C586.765 563.311 584.924 554.358 584.924 545.31C584.924 536.262 586.765 527.309 590.335 518.996C593.811 510.978 598.777 503.693 604.969 497.526C611.172 491.351 618.48 486.397 626.513 482.921C634.782 479.328 643.708 477.498 652.724 477.546H668.303C670.021 477.531 671.726 477.857 673.317 478.508C674.907 479.158 676.353 480.119 677.568 481.335C678.783 482.55 679.744 483.995 680.395 485.586C681.045 487.177 681.372 488.881 681.356 490.6C681.383 492.335 681.061 494.058 680.409 495.666C679.757 497.275 678.789 498.735 677.561 499.962C676.375 501.221 674.938 502.218 673.344 502.889C671.749 503.56 670.032 503.891 668.303 503.86H652.724C647.185 503.817 641.699 504.929 636.614 507.124C631.722 509.246 627.263 512.25 623.456 515.984C619.641 519.741 616.6 524.211 614.508 529.141C612.331 534.195 611.22 539.644 611.245 545.148C611.221 550.61 612.288 556.022 614.386 561.066C616.483 566.109 619.567 570.683 623.456 574.518C627.26 578.255 631.721 581.259 636.614 583.378C641.698 585.577 647.185 586.688 652.724 586.642H668.303C670.038 586.615 671.759 586.952 673.357 587.631C674.954 588.31 676.391 589.316 677.576 590.584Z" fill="white"/>
</g>
<defs>
<clipPath id="clip0_870_230">
<rect width="653.805" height="508" fill="white" transform="translate(108 105)"/>
</clipPath>
</defs>
</svg>
