<svg width="2053" height="5367" viewBox="0 0 2053 5367" fill="none" xmlns="http://www.w3.org/2000/svg">
<g clip-path="url(#clip0_165_135)">
<path d="M4.77625 2593.75C-266.724 2749.18 -413.099 3284.23 -304.059 3557.76C-183.589 3859.82 569.704 3813.94 656.141 3740.28C742.577 3666.63 35.9307 3430.94 132.357 3153.01C239.45 2844.51 777.203 2844.09 762.557 2712.36C748.165 2582.74 318.606 2414.1 4.77625 2593.75Z" stroke="#B4FF39" stroke-opacity="0.14" stroke-width="5" stroke-miterlimit="10"/>
<path d="M-80.2188 2555.74C-398.451 2691.19 -536.529 3338.83 -396.25 3643.94C-237.261 3989.52 581.135 3861.43 702.62 3806.74C807.343 3759.67 127.534 3442.71 208.806 3106.87C297.02 2741.99 782.03 2682.73 745.796 2598.07C706.853 2507.31 293.211 2397.17 -80.2188 2555.74Z" stroke="#B4FF39" stroke-opacity="0.14" stroke-width="5" stroke-miterlimit="10"/>
<path d="M-165.212 2517.82C-529.668 2632.87 -659.704 3393.36 -488.439 3730.04C-290.592 4119.47 586.05 3907.83 749.102 3873.29C867.625 3847.89 219.731 3454.9 285.172 3060.56C355.016 2639.98 797.781 2516.63 729.038 2484.38C677.735 2427.23 269.172 2380.58 -165.212 2517.82Z" stroke="#B4FF39" stroke-opacity="0.14" stroke-width="5" stroke-miterlimit="10"/>
<path d="M-250.211 2479.55C-660.637 2575.04 -782.63 3447.54 -580.38 3815.97C-343.336 4248.41 602.556 4015.34 795.832 3939.57C916.894 3892.08 312.515 3466.92 361.787 3014.34C413.683 2538.05 808.277 2352.82 712.528 2370.34C642.515 2349.43 245.042 2364.5 -250.211 2479.55Z" stroke="#B4FF39" stroke-opacity="0.14" stroke-width="5" stroke-miterlimit="10"/>
<path d="M-335.215 2441.79C-791.441 2517.98 -905.392 3502.06 -672.834 3902.41C-396.508 4378.19 597.047 4066.48 842.049 4006.28C979.535 3972.42 405.041 3479.54 437.973 2968.45C471.837 2436.46 827.403 2210.67 695.505 2256.64C611.015 2286.02 221.077 2348.84 -335.215 2441.79Z" stroke="#B4FF39" stroke-opacity="0.14" stroke-width="5" stroke-miterlimit="10"/>
<path d="M-420.118 2403.78C-922.229 2461.09 -1028.05 3556.41 -765.017 3988.51C-449.155 4507.55 593.078 4026.94 888.622 4073.16C1041.77 4096.95 498.176 3492.24 514.43 2922.57C531.362 2335.04 840.366 2042.88 678.753 2143.11C578.178 2205.08 197.214 2333.43 -420.118 2403.78Z" stroke="#B4FF39" stroke-opacity="0.14" stroke-width="5" stroke-miterlimit="10"/>
<path d="M-505.11 2365.85C-1053.02 2404.29 -1150.63 3610.34 -857.291 4074.69C-501.724 4636.82 596.723 4061.82 935.019 4139.28C1100.53 4177.21 591.22 3504.34 590.712 2876.09C590.204 2232.68 850.614 1875.42 661.91 2028.83C543.557 2125.08 173.345 2318.19 -505.11 2365.85Z" stroke="#B4FF39" stroke-opacity="0.14" stroke-width="5" stroke-miterlimit="10"/>
<path d="M-590.124 2327.84C-1183.84 2347.65 -1272.98 3664.77 -949.5 4160.87C-554.483 4766.1 601.278 4095.43 981.481 4205.83C1159.77 4257.55 684.498 3516.53 667.143 2829.95C649.449 2131.01 860.165 1709.32 645.132 1914.96C508.323 2045.67 149.286 2303.2 -590.124 2327.84Z" stroke="#B4FF39" stroke-opacity="0.14" stroke-width="5" stroke-miterlimit="10"/>
<path d="M-675.113 2289.83C-1314.63 2291.1 -1395.73 3718.95 -1041.69 4247.05C-607.048 4895.37 606.62 4128.53 1027.97 4272.45C1219.46 4337.89 777.884 3528.98 743.513 2783.9C708.718 2029.25 869.57 1543.98 628.377 1801.09C472.774 1966.77 125.504 2288.3 -675.113 2289.83Z" stroke="#B4FF39" stroke-opacity="0.14" stroke-width="5" stroke-miterlimit="10"/>
<path d="M-760.113 2251.9C-1445.85 2234.97 -1518.23 3773.05 -1133.88 4333.15C-659.793 5024.48 612.628 4160.7 1074.44 4338.82C1279.48 4417.9 871.26 3541.17 819.873 2737.67C768.061 1927.32 879.134 1378.82 611.528 1687.06C437.131 1888.12 101.543 2273.57 -760.113 2251.9Z" stroke="#B4FF39" stroke-opacity="0.14" stroke-width="5" stroke-miterlimit="10"/>
<path d="M-845.11 2213.89C-1576.39 2178.25 -1640.9 3827.15 -1226.07 4419.33C-712.026 5153.66 619.486 4192.79 1120.92 4405.37C1339.76 4497.98 964.809 3553.45 896.32 2691.53C827.493 1825.39 888.363 1214.07 594.766 1573.19C401.406 1809.64 77.5013 2258.93 -845.11 2213.89Z" stroke="#B4FF39" stroke-opacity="0.14" stroke-width="5" stroke-miterlimit="10"/>
<path d="M-930.111 2175.88C-1707.28 2121.86 -1763.07 3881.24 -1318.27 4505.52C-764.434 5282.77 626.001 4224.62 1167.39 4471.65C1400.12 4577.98 1058.27 3565.8 972.679 2645.14C886.919 1723.29 897.756 1049.24 578 1459.07C365.76 1731.25 53.4539 2244.28 -930.111 2175.88Z" stroke="#B4FF39" stroke-opacity="0.14" stroke-width="5" stroke-miterlimit="10"/>
<path d="M-1015.1 2137.95C-1838.23 2065.57 -1885.47 3935.68 -1410.45 4591.61C-816.827 5411.87 633.208 4256.36 1213.97 4538.36C1460.83 4658.24 1151.91 3577.91 1049.14 2599.17C946.36 1620.43 907.163 884.915 561.248 1345.12C330.045 1652.94 29.4215 2229.8 -1015.1 2137.95Z" stroke="#B4FF39" stroke-opacity="0.14" stroke-width="5" stroke-miterlimit="10"/>
<path d="M-1100.09 2099.94C-1969.2 2009.27 -2007.89 3989.35 -1502.73 4677.8C-869.229 5541.31 640.744 4288.37 1260.36 4604.9C1521.53 4738.41 1245.46 3590.1 1125.5 2553.03C1005.88 1519.6 916.647 720.592 544.403 1231.42C294.321 1574.71 5.38049 2215.24 -1100.09 2099.94Z" stroke="#B4FF39" stroke-opacity="0.14" stroke-width="5" stroke-miterlimit="10"/>
<path d="M-1185.11 2061.93C-2100.18 1952.97 -2128.97 4042.43 -1594.68 4763.98C-919.701 5668.81 648.772 4319.52 1307.08 4671.36C1582.56 4818.59 1339.33 3602.29 1202.1 2506.89C1065.63 1417.67 926.368 556.187 527.879 1117.47C258.58 1496.49 -18.8471 2200.85 -1185.11 2061.93Z" stroke="#B4FF39" stroke-opacity="0.14" stroke-width="5" stroke-miterlimit="10"/>
<path d="M-1270.09 2024C-2231.14 1896.76 -2251.46 4096.53 -1687.12 4849.99C-972.517 5798.17 656.317 4350.51 1353.31 4737.73C1643.27 4898.59 1432.72 3614.31 1278.22 2460.41C1124.99 1315.32 935.606 391.609 510.873 1003.18C222.864 1418.27 -42.9643 2186.37 -1270.09 2024Z" stroke="#B4FF39" stroke-opacity="0.14" stroke-width="5" stroke-miterlimit="10"/>
<path d="M-1355.09 1985.99C-2362.53 1840.54 -2374.04 4150.71 -1779.32 4936.26C-1025.09 5926.77 664.275 4382.51 1399.79 4804.36C1704.56 4979.01 1528.39 3626.42 1354.58 2414.53C1186.53 1213.39 945.088 227.625 494.111 889.656C187.138 1340.13 -67.177 2171.98 -1355.09 1985.99Z" stroke="#B4FF39" stroke-opacity="0.14" stroke-width="5" stroke-miterlimit="10"/>
<path d="M-1440.08 1947.98C-2493.49 1786.2 -2496.62 4204.9 -1871.5 5022.45C-1077.66 6056.47 672.408 4414 1446.36 4870.91C1765.27 5059.19 1621.6 3638.61 1431.03 2368.39C1245.72 1111.47 954.575 63.4752 477.269 775.709C151.418 1261.99 -91.722 2159.96 -1440.08 1947.98Z" stroke="#B4FF39" stroke-opacity="0.14" stroke-width="5" stroke-miterlimit="10"/>
<path d="M-1525.09 1910.05C-2624.47 1729.56 -2619.05 4258.99 -1963.71 5108.62C-1130.33 6185.65 680.604 4445.41 1492.82 4937.44C1826.29 5139.44 1714.88 3650.63 1507.38 2322.25C1304.88 1009.53 964.126 -100.766 460.491 661.84C115.422 1184.27 -115.865 2145.06 -1525.09 1910.05Z" stroke="#B4FF39" stroke-opacity="0.14" stroke-width="5" stroke-miterlimit="10"/>
<path d="M-1610.09 1872.04C-2755.44 1672.92 -2741.72 4313.17 -2055.9 5194.72C-1182.9 6314.59 688.989 4476.9 1539.3 5003.9C1887.42 5219.7 1808.6 3663.08 1583.75 2276.37C1363.63 907.86 972.257 -265.595 443.732 548.145C78.9378 1105.11 -139.99 2130.08 -1610.09 1872.04Z" stroke="#B4FF39" stroke-opacity="0.14" stroke-width="5" stroke-miterlimit="10"/>
<path d="M-1695.08 1834.02C-2886.39 1616.03 -2864.55 4367.44 -2148.09 5280.91C-1235.46 6444.03 697.379 4508.39 1585.79 5070.11C1948.64 5299.7 1901.48 3674.93 1660.2 2229.64C1423.24 805.591 982.51 -429.496 426.979 433.939C43.7293 1027.4 -163.939 2115.52 -1695.08 1834.02Z" stroke="#B4FF39" stroke-opacity="0.14" stroke-width="5" stroke-miterlimit="10"/>
<path d="M410.127 320.073C8.50588 949.595 -188.326 2100.19 -1780.08 1796.1C-3017.45 1559.65 -2986.89 4421.45 -2240.37 5367.09C-1288.04 6573.31 705.755 4539.89 1632.26 5136.9C2381.49 5619.79 1584.6 -1521 410.127 320.073Z" stroke="#B4FF39" stroke-opacity="0.14" stroke-width="5" stroke-miterlimit="10"/>
</g>
<defs>
<clipPath id="clip0_165_135">
<rect width="2053" height="5367" fill="white"/>
</clipPath>
</defs>
</svg>
